<?xml version="1.0" encoding="utf-8"?>
<!-- Generator: Adobe Illustrator 21.0.2, SVG Export Plug-In . SVG Version: 6.00 Build 0)  -->
<svg version="1.2" baseProfile="tiny" xmlns="http://www.w3.org/2000/svg" xmlns:xlink="http://www.w3.org/1999/xlink" x="0px"
	 y="0px" viewBox="0 0 960 570" xml:space="preserve">
<g id="Layer_2">
	<g>
		<rect fill="#FFFFFF" width="960" height="570"/>
	</g>
</g>
<g id="Layer_1">
	<g>
		<rect x="272.6" fill="#BFBFBF" width="1" height="513"/>
	</g>
	<g>
		<rect x="385.8" fill="#BFBFBF" width="1" height="513"/>
	</g>
	<g>
		<rect x="498.9" fill="#BFBFBF" width="1" height="513"/>
	</g>
	<g>
		<rect x="612.1" fill="#BFBFBF" width="1" height="513"/>
	</g>
	<g>
		<rect x="725.2" fill="#BFBFBF" width="1" height="513"/>
	</g>
	<g>
		<rect x="838.4" fill="#BFBFBF" width="1" height="513"/>
	</g>
	<g>
		<rect x="951.5" fill="#BFBFBF" width="1" height="513"/>
	</g>
	<g>
		<rect x="160" y="9" fill="#85AFD0" width="273.5" height="38"/>
	</g>
	<g>
		<rect x="160" y="123" fill="#85AFD0" width="106.2" height="38"/>
	</g>
	<g>
		<rect x="160" y="180" fill="#85AFD0" width="174" height="38"/>
	</g>
	<g>
		<rect x="160" y="237" fill="#85AFD0" width="185.3" height="38"/>
	</g>
	<g>
		<rect x="160" y="294" fill="#85AFD0" width="81.4" height="38"/>
	</g>
	<g>
		<rect x="160" y="351" fill="#85AFD0" width="122" height="38"/>
	</g>
	<g>
		<rect x="160" y="408" fill="#85AFD0" width="162.7" height="38"/>
	</g>
	<g>
		<path d="M160.7,542c0-1.3,1.1-2.4,2.4-2.4c1.3,0,2.4,1,2.4,2.4s-1.1,2.4-2.4,2.4C161.7,544.4,160.7,543.4,160.7,542z M161.8,542
			c0,0.8,0.5,1.4,1.3,1.4c0.8,0,1.3-0.6,1.3-1.4s-0.5-1.4-1.3-1.4C162.3,540.7,161.8,541.3,161.8,542z M169.1,539.8h1.3l-6.8,11.2
			h-1.3L169.1,539.8z M167.2,548.8c0-1.3,1.1-2.4,2.4-2.4s2.4,1,2.4,2.4s-1.1,2.4-2.4,2.4S167.2,550.1,167.2,548.8z M168.4,548.8
			c0,0.8,0.5,1.4,1.3,1.4s1.3-0.6,1.3-1.4s-0.5-1.4-1.3-1.4S168.4,548,168.4,548.8z"/>
		<path d="M184.5,551h-1.3v-0.9c-0.5,0.7-1.4,1.1-2.3,1.1c-1.8,0-2.7-1.3-2.7-2.7V543h1.3v5c0,1.4,0.7,1.9,1.6,1.9
			c1.1,0,2-0.7,2-2.2V543h1.3V551z"/>
		<path d="M187,543h1.3v0.9c0.5-0.7,1.4-1.1,2.3-1.1c1.8,0,2.7,1.3,2.7,2.7v5.4H192v-5c0-1.4-0.7-1.9-1.6-1.9c-1,0-2,0.7-2,2.2v4.7
			H187V543z"/>
		<path d="M196.7,547.4c0.1,1.5,1,2.6,2.5,2.6c0.9,0,1.5-0.3,2.1-0.8l0.7,0.9c-0.7,0.6-1.7,1-2.8,1c-2.3,0-3.8-1.7-3.8-4.1
			c0-2.4,1.4-4.2,3.6-4.2c2.1,0,3.4,1.7,3.4,4.1v0.4H196.7z M196.7,546.4h4.2c0-1.2-0.7-2.4-2-2.4
			C197.6,544,196.8,545.1,196.7,546.4z"/>
		<path d="M210.4,551H209v-5c0-1.4-0.7-1.9-1.6-1.9c-0.9,0-1.8,0.7-1.8,2.2v4.7h-1.3v-8h1.3v0.9c0.5-0.7,1.2-1.1,2.1-1.1
			c0.7,0,1.7,0.4,2.2,1.3c0.6-1,1.5-1.3,2.4-1.3c1.7,0,2.7,1.3,2.7,2.7v5.5h-1.3v-5c0-1.4-0.8-1.9-1.6-1.9c-0.9,0-1.8,0.7-1.8,2.2
			V551z"/>
		<path d="M218.9,543v0.9c0.5-0.7,1.3-1.1,2.3-1.1c2.1,0,3.4,1.7,3.4,4.2s-1.3,4.1-3.4,4.1c-1,0-1.9-0.4-2.3-1.1v3.3h-1.3V543H218.9
			z M223.2,547c0-1.7-0.8-2.9-2.3-2.9c-1.4,0-2.1,1-2.1,2.3v1.3c0,1.3,0.7,2.3,2.1,2.3C222.4,550,223.2,548.7,223.2,547L223.2,547z"
			/>
		<path d="M226.6,539.8h1.3v9.4c0,0.5,0.2,0.8,0.8,0.8c0.3,0,0.6,0,0.8,0l0.1,1.1c0,0-0.8,0.1-1.3,0.1c-0.9,0-1.7-0.4-1.7-1.6V539.8
			z"/>
		<path d="M238,547c0,2.4-1.5,4.1-3.7,4.1s-3.7-1.7-3.7-4.1c0-2.4,1.5-4.2,3.7-4.2S238,544.6,238,547z M236.6,547.1L236.6,547.1
			c0-1.7-0.8-3.1-2.3-3.1s-2.3,1.4-2.3,3v0.1c0,1.6,0.8,2.9,2.3,2.9S236.6,548.6,236.6,547.1z"/>
		<path d="M239,543h1.5l2,6.6l1.9-6.6h1.5l-2.9,9.2c-0.4,1.1-1.1,1.4-2.1,1.4c-0.4,0-0.9,0-1.4-0.1l0.2-1.2c0,0,0.5,0.1,1.1,0.1
			c0.6,0,0.9-0.2,1-0.8l0.1-0.4L239,543z"/>
		<path d="M253.5,551h-1.3v-5c0-1.4-0.7-1.9-1.6-1.9c-0.9,0-1.8,0.7-1.8,2.2v4.7h-1.3v-8h1.3v0.9c0.5-0.7,1.2-1.1,2.1-1.1
			c0.7,0,1.7,0.4,2.2,1.3c0.6-1,1.5-1.3,2.4-1.3c1.7,0,2.7,1.3,2.7,2.7v5.5h-1.3v-5c0-1.4-0.8-1.9-1.6-1.9c-0.9,0-1.8,0.7-1.8,2.2
			V551z"/>
		<path d="M261.6,547.4c0.1,1.5,1,2.6,2.5,2.6c0.9,0,1.5-0.3,2.1-0.8l0.7,0.9c-0.7,0.6-1.7,1-2.8,1c-2.3,0-3.8-1.7-3.8-4.1
			c0-2.4,1.4-4.2,3.6-4.2c2.1,0,3.4,1.7,3.4,4.1v0.4H261.6z M261.6,546.4h4.2c0-1.2-0.7-2.4-2-2.4
			C262.5,544,261.7,545.1,261.6,546.4z"/>
		<path d="M269.3,543h1.3v0.9c0.5-0.7,1.4-1.1,2.3-1.1c1.8,0,2.7,1.3,2.7,2.7v5.4h-1.3v-5c0-1.4-0.7-1.9-1.6-1.9c-1,0-2,0.7-2,2.2
			v4.7h-1.3V543z"/>
		<path d="M280.1,549c0,0.5,0.1,1,1,1c0.2,0,0.8,0,1-0.1l0.1,1.2c0,0-0.8,0.1-1.4,0.1c-1.3,0-2-0.5-2-1.9v-5.1h-1.5V543h1.5v-2.6
			l1.3-0.5v3.1h2.2v1.2h-2.2V549z"/>
	</g>
	<g>
		<path d="M159,526.4c0,2.9-1.1,5.7-4.1,5.7s-4.1-2.8-4.1-5.7c0-2.9,1.1-5.8,4.1-5.8S159,523.5,159,526.4z M157.5,526.7v-0.7
			c0-2.7-1-4.2-2.6-4.2c-1.6,0-2.6,1.5-2.6,4.2v0.7c0,2.7,1,4.2,2.6,4.2C156.5,531,157.5,529.4,157.5,526.7z"/>
	</g>
	<g>
		<path d="M263.8,526.3l0.6-5.5h6.4v1.2h-5.3l-0.3,3.2c0.6-0.6,1.5-0.9,2.4-0.9c2.1,0,3.7,1.6,3.7,3.8c0,2.4-1.6,4.1-4,4.1
			c-1.8,0-3.4-0.9-3.8-2.7l1.4-0.2c0.3,0.9,1,1.7,2.4,1.7c1.6,0,2.6-1.2,2.6-2.8c0-1.6-1-2.7-2.6-2.7c-0.8,0-1.7,0.4-2.1,1
			L263.8,526.3z"/>
	</g>
	<g>
		<path d="M374.7,520.9v-0.1h1.3V532h-1.4v-8.2h-2.1v-1.2h0.2C374.3,522.6,374.7,522.1,374.7,520.9z"/>
		<path d="M386.8,526.4c0,2.9-1.1,5.7-4.1,5.7s-4.1-2.8-4.1-5.7c0-2.9,1.1-5.8,4.1-5.8S386.8,523.5,386.8,526.4z M385.4,526.7v-0.7
			c0-2.7-1-4.2-2.6-4.2c-1.6,0-2.6,1.5-2.6,4.2v0.7c0,2.7,1,4.2,2.6,4.2C384.3,531,385.4,529.4,385.4,526.7z"/>
	</g>
	<g>
		<path d="M487.5,520.9v-0.1h1.3V532h-1.4v-8.2h-2.1v-1.2h0.2C487.1,522.6,487.5,522.1,487.5,520.9z"/>
		<path d="M491.7,526.3l0.6-5.5h6.4v1.2h-5.3l-0.3,3.2c0.6-0.6,1.5-0.9,2.4-0.9c2.1,0,3.7,1.6,3.7,3.8c0,2.4-1.6,4.1-4,4.1
			c-1.8,0-3.4-0.9-3.8-2.7l1.4-0.2c0.3,0.9,1,1.7,2.4,1.7c1.6,0,2.6-1.2,2.6-2.8c0-1.6-1-2.7-2.6-2.7c-0.8,0-1.7,0.4-2.1,1
			L491.7,526.3z"/>
	</g>
	<g>
		<path d="M596.1,532v-1.3c0.8-0.7,3.2-2.7,4-3.5c0.9-0.8,1.7-1.8,1.7-3.1c0-1.4-0.9-2.2-2.2-2.2c-1.4,0-2.1,1-2.2,2.4l-1.4-0.1
			c0.1-2.2,1.5-3.5,3.6-3.5c2.2,0,3.7,1.3,3.7,3.5c0,1.6-0.8,2.7-3.3,4.8l-2,1.7h5.5v1.2H596.1z"/>
		<path d="M613.7,526.4c0,2.9-1.1,5.7-4.1,5.7c-3,0-4.1-2.8-4.1-5.7c0-2.9,1.1-5.8,4.1-5.8C612.6,520.7,613.7,523.5,613.7,526.4z
			 M612.2,526.7v-0.7c0-2.7-1-4.2-2.6-4.2c-1.6,0-2.6,1.5-2.6,4.2v0.7c0,2.7,1,4.2,2.6,4.2C611.2,531,612.2,529.4,612.2,526.7z"/>
	</g>
	<g>
		<path d="M708.9,532v-1.3c0.8-0.7,3.2-2.7,4-3.5c0.9-0.8,1.7-1.8,1.7-3.1c0-1.4-0.9-2.2-2.2-2.2c-1.4,0-2.1,1-2.2,2.4l-1.4-0.1
			c0.1-2.2,1.5-3.5,3.6-3.5c2.2,0,3.7,1.3,3.7,3.5c0,1.6-0.8,2.7-3.3,4.8l-2,1.7h5.5v1.2H708.9z"/>
		<path d="M718.5,526.3l0.6-5.5h6.4v1.2h-5.3l-0.3,3.2c0.6-0.6,1.5-0.9,2.4-0.9c2.1,0,3.7,1.6,3.7,3.8c0,2.4-1.6,4.1-4,4.1
			c-1.8,0-3.4-0.9-3.8-2.7l1.4-0.2c0.3,0.9,1,1.7,2.4,1.7c1.6,0,2.6-1.2,2.6-2.8c0-1.6-1-2.7-2.6-2.7c-0.8,0-1.7,0.4-2.1,1
			L718.5,526.3z"/>
	</g>
	<g>
		<path d="M822.2,529.1c0.4,1.1,1.1,1.8,2.6,1.8c1.6,0,2.4-0.9,2.4-2.1c0-1.2-0.9-2-2.6-2H824v-1.2h0.3c1.5,0,2.7-0.5,2.7-1.9
			c0-1.3-1-1.9-2.2-1.9c-1.2,0-2.1,0.7-2.5,1.7l-1.3-0.5c0.6-1.6,2.1-2.4,3.7-2.4c2,0,3.6,1.2,3.6,3c0,1.2-0.7,2.3-2.1,2.6
			c1.6,0.3,2.3,1.4,2.3,2.7c0,2.2-1.8,3.2-3.9,3.2c-1.8,0-3.3-0.8-3.9-2.6L822.2,529.1z"/>
		<path d="M838.8,526.4c0,2.9-1.1,5.7-4.1,5.7c-3,0-4.1-2.8-4.1-5.7c0-2.9,1.1-5.8,4.1-5.8C837.7,520.7,838.8,523.5,838.8,526.4z
			 M837.3,526.7v-0.7c0-2.7-1-4.2-2.6-4.2s-2.6,1.5-2.6,4.2v0.7c0,2.7,1,4.2,2.6,4.2S837.3,529.4,837.3,526.7z"/>
	</g>
	<g>
		<path d="M935,529.1c0.4,1.1,1.1,1.8,2.6,1.8c1.6,0,2.4-0.9,2.4-2.1c0-1.2-0.9-2-2.6-2h-0.5v-1.2h0.3c1.5,0,2.7-0.5,2.7-1.9
			c0-1.3-1-1.9-2.2-1.9c-1.2,0-2.1,0.7-2.5,1.7l-1.3-0.5c0.6-1.6,2.1-2.4,3.7-2.4c2,0,3.6,1.2,3.6,3c0,1.2-0.7,2.3-2.1,2.6
			c1.6,0.3,2.3,1.4,2.3,2.7c0,2.2-1.8,3.2-3.9,3.2c-1.8,0-3.3-0.8-3.9-2.6L935,529.1z"/>
		<path d="M943.6,526.3l0.6-5.5h6.4v1.2h-5.3l-0.3,3.2c0.6-0.6,1.5-0.9,2.4-0.9c2.1,0,3.7,1.6,3.7,3.8c0,2.4-1.6,4.1-4,4.1
			c-1.8,0-3.4-0.9-3.8-2.7l1.4-0.2c0.3,0.9,1,1.7,2.4,1.7c1.6,0,2.6-1.2,2.6-2.8c0-1.6-1-2.7-2.6-2.7c-0.8,0-1.7,0.4-2.1,1
			L943.6,526.3z"/>
	</g>
	<g>
		<path d="M21.7,197.8h1.7V209H22v-9.5l-3.8,5.2h0l-3.8-5.1v9.5H13v-11.2h1.7l3.5,4.8L21.7,197.8z"/>
		<path d="M26.9,197.8c0.5,0,1,0.4,1,1c0,0.5-0.4,1-1,1c-0.5,0-1-0.4-1-1C25.9,198.2,26.3,197.8,26.9,197.8z M27.5,209h-1.3v-8h1.3
			V209z"/>
		<path d="M31.8,204.8l-2.4-3.8h1.5l1.7,2.8l1.6-2.8h1.5l-2.4,3.8l2.8,4.2h-1.6l-2-3.1l-1.8,3.1h-1.6L31.8,204.8z"/>
		<path d="M38.3,205.4c0.1,1.5,1,2.6,2.5,2.6c0.9,0,1.5-0.3,2.1-0.8l0.7,0.9c-0.7,0.6-1.7,1-2.8,1c-2.3,0-3.8-1.7-3.8-4.1
			c0-2.4,1.4-4.2,3.6-4.2c2.1,0,3.4,1.7,3.4,4.1v0.4H38.3z M38.4,204.4h4.2c0-1.2-0.7-2.4-2-2.4C39.3,202,38.4,203.1,38.4,204.4z"/>
		<path d="M51.3,208.1c-0.5,0.7-1.3,1.1-2.3,1.1c-2.1,0-3.4-1.7-3.4-4.1c0-2.4,1.3-4.2,3.4-4.2c1,0,1.9,0.4,2.3,1.1v-4.1h1.3V209
			h-1.3V208.1z M46.9,205c0,1.7,0.8,2.9,2.3,2.9c1.4,0,2.1-1,2.1-2.3v-1.3c0-1.3-0.7-2.3-2.1-2.3C47.7,202,46.9,203.3,46.9,205
			L46.9,205z"/>
		<path d="M66.2,205c0,2.4-1.5,4.1-3.7,4.1s-3.7-1.7-3.7-4.1c0-2.4,1.5-4.2,3.7-4.2S66.2,202.6,66.2,205z M64.8,205.1L64.8,205.1
			c0-1.7-0.8-3.1-2.3-3.1s-2.3,1.4-2.3,3v0.1c0,1.6,0.8,2.9,2.3,2.9S64.8,206.6,64.8,205.1z"/>
		<path d="M72.4,202.2h-0.2c-1.3,0-2.6,0.5-2.6,2.7v4.1h-1.3v-8h1.3v1.3c0.4-0.9,1.4-1.4,2.4-1.4h0.4V202.2z"/>
		<path d="M83.9,209h-1.3v-5c0-1.4-0.7-1.9-1.6-1.9c-0.9,0-1.8,0.7-1.8,2.2v4.7h-1.3v-8h1.3v0.9c0.5-0.7,1.2-1.1,2.1-1.1
			c0.7,0,1.7,0.4,2.2,1.3c0.6-1,1.5-1.3,2.4-1.3c1.7,0,2.7,1.3,2.7,2.7v5.5h-1.3v-5c0-1.4-0.8-1.9-1.6-1.9c-0.9,0-1.8,0.7-1.8,2.2
			V209z"/>
		<path d="M97.3,209H96v-0.9c-0.5,0.7-1.4,1.1-2.3,1.1c-1.8,0-2.7-1.3-2.7-2.7V201h1.3v5c0,1.4,0.7,1.9,1.6,1.9c1.1,0,2-0.7,2-2.2
			V201h1.3V209z"/>
		<path d="M99.8,197.8h1.3v9.4c0,0.5,0.2,0.8,0.8,0.8c0.3,0,0.6,0,0.8,0l0.1,1.1c0,0-0.8,0.1-1.3,0.1c-0.9,0-1.7-0.4-1.7-1.6V197.8z
			"/>
		<path d="M106.3,207c0,0.5,0.1,1,1,1c0.2,0,0.8,0,1-0.1l0.1,1.2c0,0-0.8,0.1-1.4,0.1c-1.3,0-2-0.5-2-1.9v-5.1h-1.5V201h1.5v-2.6
			l1.3-0.5v3.1h2.2v1.2h-2.2V207z"/>
		<path d="M111,197.8c0.5,0,1,0.4,1,1c0,0.5-0.4,1-1,1c-0.5,0-1-0.4-1-1C110,198.2,110.5,197.8,111,197.8z M111.7,209h-1.3v-8h1.3
			V209z"/>
		<path d="M115.5,201v0.9c0.5-0.7,1.3-1.1,2.3-1.1c2.1,0,3.4,1.7,3.4,4.2c0,2.4-1.3,4.1-3.4,4.1c-1,0-1.9-0.4-2.3-1.1v3.3h-1.3V201
			H115.5z M119.9,205c0-1.7-0.8-2.9-2.3-2.9c-1.4,0-2.1,1-2.1,2.3v1.3c0,1.3,0.7,2.3,2.1,2.3C119.1,208,119.9,206.7,119.9,205
			L119.9,205z"/>
		<path d="M123.3,197.8h1.3v9.4c0,0.5,0.2,0.8,0.8,0.8c0.3,0,0.6,0,0.8,0l0.1,1.1c0,0-0.8,0.1-1.3,0.1c-0.9,0-1.7-0.4-1.7-1.6V197.8
			z"/>
		<path d="M128.6,205.4c0.1,1.5,1,2.6,2.5,2.6c0.9,0,1.5-0.3,2.1-0.8l0.7,0.9c-0.7,0.6-1.7,1-2.8,1c-2.3,0-3.8-1.7-3.8-4.1
			c0-2.4,1.4-4.2,3.6-4.2c2.1,0,3.4,1.7,3.4,4.1v0.4H128.6z M128.6,204.4h4.2c0-1.2-0.7-2.4-2-2.4
			C129.5,202,128.7,203.1,128.6,204.4z"/>
	</g>
	<g>
		<path d="M103.6,321.1l1.9-9.3h1.4l-2.5,11.2h-1.6l-2.4-9.2l-2.4,9.2h-1.6l-2.5-11.2h1.4l2,9.3l2.4-9.3h1.5L103.6,321.1z"/>
		<path d="M109,311.8h1.3v4.1c0.5-0.7,1.4-1.1,2.3-1.1c1.8,0,2.7,1.3,2.7,2.7v5.4H114v-5c0-1.4-0.7-1.9-1.6-1.9c-1,0-2,0.7-2,2.2
			v4.7H109V311.8z"/>
		<path d="M118.5,311.8c0.5,0,1,0.4,1,1c0,0.5-0.4,1-1,1c-0.5,0-1-0.4-1-1C117.5,312.2,117.9,311.8,118.5,311.8z M119.1,323h-1.3v-8
			h1.3V323z"/>
		<path d="M123.7,321c0,0.5,0.1,1,1,1c0.2,0,0.8,0,1-0.1l0.1,1.2c0,0-0.8,0.1-1.4,0.1c-1.3,0-2-0.5-2-1.9v-5.1h-1.5V315h1.5v-2.6
			l1.3-0.5v3.1h2.2v1.2h-2.2V321z"/>
		<path d="M128.6,319.4c0.1,1.5,1,2.6,2.5,2.6c0.9,0,1.5-0.3,2.1-0.8l0.7,0.9c-0.7,0.6-1.7,1-2.8,1c-2.3,0-3.8-1.7-3.8-4.1
			c0-2.4,1.4-4.2,3.6-4.2c2.1,0,3.4,1.7,3.4,4.1v0.4H128.6z M128.6,318.4h4.2c0-1.2-0.7-2.4-2-2.4
			C129.5,316,128.7,317.1,128.6,318.4z"/>
	</g>
	<g>
		<path d="M49.3,243.8h3.9c2.1,0,3.5,1.5,3.5,3.5c0,2.1-1.5,3.5-3.6,3.5h-2.4v4.2h-1.4V243.8z M52.9,245h-2.3v4.7h2.3
			c1.4,0,2.3-1,2.3-2.3v-0.1C55.2,246,54.4,245,52.9,245z"/>
		<path d="M60.7,255.2c-1.6,0-2.8-0.9-2.8-2.4c0-1.2,0.8-2.1,2.1-2.3l2.8-0.4v-0.5c0-1.2-0.8-1.6-1.8-1.6c-0.9,0-1.7,0.3-2.3,0.6
			l-0.5-1c0.9-0.5,2-0.7,2.9-0.7c1.9,0,3,0.9,3,2.5v3.7c0,0.5,0.2,0.9,0.7,1.1l-0.7,0.9c-0.5-0.1-0.9-0.5-1.1-1
			C62.5,254.7,61.7,255.2,60.7,255.2z M60.7,251.4c-0.9,0.1-1.5,0.4-1.5,1.2c0,0.9,0.8,1.4,1.6,1.4c1,0,2-0.6,2-1.6v-1.4L60.7,251.4
			z"/>
		<path d="M68,250.9l3.8-3.9h1.6l-3,3.2l3.2,4.8h-1.6l-2.5-3.9l-1.4,1.5v2.5h-1.3v-11.2H68V250.9z"/>
		<path d="M75.8,243.8c0.5,0,1,0.4,1,1c0,0.5-0.4,1-1,1c-0.5,0-1-0.4-1-1C74.9,244.2,75.3,243.8,75.8,243.8z M76.5,255h-1.3v-8h1.3
			V255z"/>
		<path d="M78.3,254l0.8-0.9c0.5,0.4,1.3,1,2.4,1c0.9,0,1.6-0.4,1.6-1.2c0-0.9-0.9-1.1-2-1.3c-1.1-0.3-2.5-0.7-2.5-2.3
			c0-1.3,1.2-2.3,2.9-2.3c1.1,0,2.2,0.4,2.8,1l-0.8,0.9c-0.5-0.4-1.2-0.8-2-0.8c-1.1,0-1.6,0.5-1.6,1.2c0,0.6,0.4,0.9,1.2,1.1
			c0.4,0.1,0.9,0.3,1.3,0.4c1.1,0.3,2,0.9,2,2.2c0,1.6-1.5,2.4-3,2.4C80.4,255.2,79.2,254.8,78.3,254z"/>
		<path d="M88.6,253c0,0.5,0.1,1,1,1c0.2,0,0.8,0,1-0.1l0.1,1.2c0,0-0.8,0.1-1.4,0.1c-1.3,0-2-0.5-2-1.9v-5.1h-1.5V247h1.5v-2.6
			l1.3-0.5v3.1h2.2v1.2h-2.2V253z"/>
		<path d="M94.8,255.2c-1.6,0-2.8-0.9-2.8-2.4c0-1.2,0.8-2.1,2.1-2.3l2.8-0.4v-0.5c0-1.2-0.8-1.6-1.8-1.6c-0.9,0-1.7,0.3-2.3,0.6
			l-0.5-1c0.9-0.5,2-0.7,2.9-0.7c1.9,0,3,0.9,3,2.5v3.7c0,0.5,0.2,0.9,0.7,1.1l-0.7,0.9c-0.5-0.1-0.9-0.5-1.1-1
			C96.7,254.7,95.9,255.2,94.8,255.2z M94.8,251.4c-0.9,0.1-1.5,0.4-1.5,1.2c0,0.9,0.8,1.4,1.6,1.4c1,0,2-0.6,2-1.6v-1.4L94.8,251.4
			z"/>
		<path d="M100.8,247h1.3v0.9c0.5-0.7,1.4-1.1,2.3-1.1c1.8,0,2.7,1.3,2.7,2.7v5.4h-1.3v-5c0-1.4-0.7-1.9-1.6-1.9c-1,0-2,0.7-2,2.2
			v4.7h-1.3V247z"/>
		<path d="M110.3,243.8c0.5,0,1,0.4,1,1c0,0.5-0.4,1-1,1c-0.5,0-1-0.4-1-1C109.3,244.2,109.8,243.8,110.3,243.8z M111,255h-1.3v-8
			h1.3V255z"/>
		<path d="M124.6,251c0,2.4-1.5,4.1-3.7,4.1s-3.7-1.7-3.7-4.1c0-2.4,1.5-4.2,3.7-4.2S124.6,248.6,124.6,251z M123.2,251.1
			L123.2,251.1c0-1.7-0.8-3.1-2.3-3.1s-2.3,1.4-2.3,3v0.1c0,1.6,0.8,2.9,2.3,2.9S123.2,252.6,123.2,251.1z"/>
		<path d="M130.7,248.2h-0.2c-1.3,0-2.6,0.5-2.6,2.7v4.1h-1.3v-8h1.3v1.3c0.4-0.9,1.4-1.4,2.4-1.4h0.4V248.2z"/>
		<path d="M53.9,262.8c1.8,0,3.1,1.1,3.1,2.8c0,1.1-0.8,2.1-1.8,2.5c1.1,0.2,2.4,1.1,2.4,2.7c0,2.2-1.8,3.2-3.8,3.2h-4.3v-11.2H53.9
			z M55.7,265.8c0-1-0.6-1.8-2.2-1.8H51v3.7h2.5C55,267.7,55.7,266.8,55.7,265.8L55.7,265.8z M53.9,268.8H51v4h2.9
			c1.3,0,2.4-0.6,2.4-2C56.3,269.4,55.2,268.8,53.9,268.8z"/>
		<path d="M62.1,274.2c-1.6,0-2.8-0.9-2.8-2.4c0-1.2,0.8-2.1,2.1-2.3l2.8-0.4v-0.5c0-1.2-0.8-1.6-1.8-1.6c-0.9,0-1.7,0.3-2.3,0.6
			l-0.5-1c0.9-0.5,2-0.7,2.9-0.7c1.9,0,3,0.9,3,2.5v3.7c0,0.5,0.2,0.9,0.7,1.1l-0.7,0.9c-0.5-0.1-0.9-0.5-1.1-1
			C63.9,273.7,63.1,274.2,62.1,274.2z M62.1,270.4c-0.9,0.1-1.5,0.4-1.5,1.2c0,0.9,0.8,1.4,1.6,1.4c1,0,2-0.6,2-1.6v-1.4L62.1,270.4
			z"/>
		<path d="M68.1,266h1.3v0.9c0.5-0.7,1.4-1.1,2.3-1.1c1.8,0,2.7,1.3,2.7,2.7v5.4h-1.3v-5c0-1.4-0.7-1.9-1.6-1.9c-1,0-2,0.7-2,2.2
			v4.7h-1.3V266z"/>
		<path d="M79.7,265.9c0.9,0,1.7,0.3,2.3,1.1V266h1.3v8.1c0,2-1.7,2.6-3.4,2.6c-0.9,0-2.1-0.2-3-0.6l0.4-1.1
			c0.6,0.3,1.6,0.6,2.5,0.6c1.3,0,2.1-0.5,2.1-1.7v-1.5c-0.5,0.8-1.4,1.1-2.3,1.1c-2,0-3.2-1.6-3.2-3.7
			C76.4,267.5,77.7,265.9,79.7,265.9z M82,269.5c0-1.4-0.6-2.5-2-2.5c-1.5,0-2.1,1.1-2.1,2.5v0.1c0,1.4,0.7,2.5,2.1,2.5
			C81.4,272.1,82,271,82,269.5L82,269.5z"/>
		<path d="M85.8,262.8h1.3v9.4c0,0.5,0.2,0.8,0.8,0.8c0.3,0,0.6,0,0.8,0l0.1,1.1c0,0-0.8,0.1-1.3,0.1c-0.9,0-1.7-0.4-1.7-1.6V262.8z
			"/>
		<path d="M92.4,274.2c-1.6,0-2.8-0.9-2.8-2.4c0-1.2,0.8-2.1,2.1-2.3l2.8-0.4v-0.5c0-1.2-0.8-1.6-1.8-1.6c-0.9,0-1.7,0.3-2.3,0.6
			l-0.5-1c0.9-0.5,2-0.7,2.9-0.7c1.9,0,3,0.9,3,2.5v3.7c0,0.5,0.2,0.9,0.7,1.1l-0.7,0.9c-0.5-0.1-0.9-0.5-1.1-1
			C94.2,273.7,93.5,274.2,92.4,274.2z M92.4,270.4c-0.9,0.1-1.5,0.4-1.5,1.2c0,0.9,0.8,1.4,1.6,1.4c1,0,2-0.6,2-1.6v-1.4L92.4,270.4
			z"/>
		<path d="M103.7,273.1c-0.5,0.7-1.3,1.1-2.3,1.1c-2.1,0-3.4-1.7-3.4-4.1c0-2.4,1.3-4.2,3.4-4.2c1,0,1.9,0.4,2.3,1.1v-4.1h1.3V274
			h-1.3V273.1z M99.3,270c0,1.7,0.8,2.9,2.3,2.9c1.4,0,2.1-1,2.1-2.3v-1.3c0-1.3-0.7-2.3-2.1-2.3C100.1,267,99.3,268.3,99.3,270
			L99.3,270z"/>
		<path d="M108.4,270.4c0.1,1.5,1,2.6,2.5,2.6c0.9,0,1.5-0.3,2.1-0.8l0.7,0.9c-0.7,0.6-1.7,1-2.8,1c-2.3,0-3.8-1.7-3.8-4.1
			c0-2.4,1.4-4.2,3.6-4.2c2.1,0,3.4,1.7,3.4,4.1v0.4H108.4z M108.4,269.4h4.2c0-1.2-0.7-2.4-2-2.4
			C109.3,267,108.5,268.1,108.4,269.4z"/>
		<path d="M115.4,273l0.8-0.9c0.5,0.4,1.3,1,2.4,1c0.9,0,1.6-0.4,1.6-1.2c0-0.9-0.9-1.1-2-1.3c-1.1-0.3-2.5-0.7-2.5-2.3
			c0-1.3,1.2-2.3,2.9-2.3c1.1,0,2.2,0.4,2.8,1l-0.8,0.9c-0.5-0.4-1.2-0.8-2-0.8c-1.1,0-1.6,0.5-1.6,1.2c0,0.6,0.4,0.9,1.2,1.1
			c0.4,0.1,0.9,0.3,1.3,0.4c1.1,0.3,2,0.9,2,2.2c0,1.6-1.5,2.4-3,2.4C117.4,274.2,116.3,273.8,115.4,273z"/>
		<path d="M123.6,262.8h1.3v4.1c0.5-0.7,1.4-1.1,2.3-1.1c1.8,0,2.7,1.3,2.7,2.7v5.4h-1.3v-5c0-1.4-0.7-1.9-1.6-1.9c-1,0-2,0.7-2,2.2
			v4.7h-1.3V262.8z"/>
		<path d="M133.1,262.8c0.5,0,1,0.4,1,1c0,0.5-0.4,1-1,1c-0.5,0-1-0.4-1-1C132.1,263.2,132.5,262.8,133.1,262.8z M133.7,274h-1.3v-8
			h1.3V274z"/>
	</g>
	<g>
		<path d="M185.2,26.9v-0.1h1.3V38h-1.4v-8.2h-2.1v-1.2h0.2C184.7,28.6,185.2,28.1,185.2,26.9z"/>
		<path d="M189.2,38v-1.3c0.8-0.7,3.2-2.7,4-3.5c0.9-0.8,1.7-1.8,1.7-3.1c0-1.4-0.9-2.2-2.2-2.2c-1.4,0-2.1,1-2.2,2.4l-1.4-0.1
			c0.1-2.2,1.5-3.5,3.6-3.5c2.2,0,3.7,1.3,3.7,3.5c0,1.6-0.8,2.7-3.3,4.8l-2,1.7h5.5V38H189.2z"/>
		<path d="M199.8,36c0.6,0,1.1,0.5,1.1,1.1c0,0.6-0.5,1.1-1.1,1.1s-1.1-0.5-1.1-1.1C198.7,36.5,199.2,36,199.8,36z"/>
		<path d="M204.3,26.9v-0.1h1.3V38h-1.4v-8.2h-2.1v-1.2h0.2C203.9,28.6,204.3,28.1,204.3,26.9z"/>
		<path d="M208,29c0-1.3,1.1-2.4,2.4-2.4c1.3,0,2.4,1,2.4,2.4c0,1.3-1.1,2.4-2.4,2.4C209,31.4,208,30.4,208,29z M209.1,29
			c0,0.8,0.5,1.4,1.3,1.4c0.8,0,1.3-0.6,1.3-1.4c0-0.8-0.5-1.4-1.3-1.4C209.6,27.7,209.1,28.3,209.1,29z M216.4,26.8h1.3L210.8,38
			h-1.3L216.4,26.8z M214.5,35.8c0-1.3,1.1-2.4,2.4-2.4s2.4,1,2.4,2.4c0,1.3-1.1,2.4-2.4,2.4S214.5,37.1,214.5,35.8z M215.6,35.8
			c0,0.8,0.5,1.4,1.3,1.4s1.3-0.6,1.3-1.4c0-0.8-0.5-1.4-1.3-1.4S215.6,35,215.6,35.8z"/>
	</g>
	<g>
		<path d="M192.2,257.7c0,1-0.5,2.1-1.9,2.5c1.6,0.4,2.2,1.7,2.2,2.8c0,2-2,3.1-4,3.1s-4-1.1-4-3.1c0-1.2,0.7-2.4,2.2-2.8
			c-1.4-0.4-1.9-1.5-1.9-2.5c0-1.9,1.8-3,3.7-3S192.2,255.7,192.2,257.7z M191.1,262.9c0-1.4-1.2-2-2.6-2c-1.4,0-2.6,0.7-2.6,2
			c0,1.4,1.2,2,2.6,2C189.8,265,191.1,264.3,191.1,262.9z M190.8,257.8c0-1.2-1.1-1.9-2.3-1.9s-2.3,0.7-2.3,1.9c0,1.2,1,1.9,2.3,1.9
			S190.8,259,190.8,257.8z"/>
		<path d="M195.6,264c0.6,0,1.1,0.5,1.1,1.1c0,0.6-0.5,1.1-1.1,1.1s-1.1-0.5-1.1-1.1C194.5,264.5,195,264,195.6,264z"/>
		<path d="M198.9,266v-1.3c0.8-0.7,3.2-2.7,4-3.5c0.9-0.8,1.7-1.8,1.7-3.1c0-1.4-0.9-2.2-2.2-2.2c-1.4,0-2.1,1-2.2,2.4l-1.4-0.1
			c0.1-2.2,1.5-3.5,3.6-3.5c2.2,0,3.7,1.3,3.7,3.5c0,1.6-0.8,2.7-3.3,4.8l-2,1.7h5.5v1.2H198.9z"/>
		<path d="M208,257c0-1.3,1.1-2.4,2.4-2.4c1.3,0,2.4,1,2.4,2.4c0,1.3-1.1,2.4-2.4,2.4C209,259.4,208,258.4,208,257z M209.1,257
			c0,0.8,0.5,1.4,1.3,1.4c0.8,0,1.3-0.6,1.3-1.4c0-0.8-0.5-1.4-1.3-1.4C209.6,255.7,209.1,256.3,209.1,257z M216.4,254.8h1.3
			l-6.8,11.2h-1.3L216.4,254.8z M214.5,263.8c0-1.3,1.1-2.4,2.4-2.4s2.4,1,2.4,2.4c0,1.3-1.1,2.4-2.4,2.4S214.5,265.1,214.5,263.8z
			 M215.6,263.8c0,0.8,0.5,1.4,1.3,1.4s1.3-0.6,1.3-1.4c0-0.8-0.5-1.4-1.3-1.4S215.6,263,215.6,263.8z"/>
	</g>
	<g>
		<path d="M193.7,199h-6v-1.2h7.3v1.2l-4.5,10h-1.6L193.7,199z"/>
		<path d="M196.8,207c0.6,0,1.1,0.5,1.1,1.1c0,0.6-0.5,1.1-1.1,1.1s-1.1-0.5-1.1-1.1C195.7,207.5,196.2,207,196.8,207z"/>
		<path d="M205.3,199h-6v-1.2h7.3v1.2l-4.5,10h-1.6L205.3,199z"/>
		<path d="M208,200c0-1.3,1.1-2.4,2.4-2.4c1.3,0,2.4,1,2.4,2.4c0,1.3-1.1,2.4-2.4,2.4C209,202.4,208,201.4,208,200z M209.1,200
			c0,0.8,0.5,1.4,1.3,1.4c0.8,0,1.3-0.6,1.3-1.4c0-0.8-0.5-1.4-1.3-1.4C209.6,198.7,209.1,199.3,209.1,200z M216.4,197.8h1.3
			l-6.8,11.2h-1.3L216.4,197.8z M214.5,206.8c0-1.3,1.1-2.4,2.4-2.4s2.4,1,2.4,2.4c0,1.3-1.1,2.4-2.4,2.4S214.5,208.1,214.5,206.8z
			 M215.6,206.8c0,0.8,0.5,1.4,1.3,1.4s1.3-0.6,1.3-1.4c0-0.8-0.5-1.4-1.3-1.4S215.6,206,215.6,206.8z"/>
	</g>
	<g>
		<path d="M190.6,152v-2.9H185v-1.4l5.1-6.9h2v7.2h1.8v1.2H192v2.9H190.6z M190.6,147.9v-6l-4.3,6H190.6z"/>
		<path d="M196.8,150c0.6,0,1.1,0.5,1.1,1.1c0,0.6-0.5,1.1-1.1,1.1s-1.1-0.5-1.1-1.1C195.7,150.5,196.2,150,196.8,150z"/>
		<path d="M205.3,142h-6v-1.2h7.3v1.2l-4.5,10h-1.6L205.3,142z"/>
		<path d="M208,143c0-1.3,1.1-2.4,2.4-2.4c1.3,0,2.4,1,2.4,2.4c0,1.3-1.1,2.4-2.4,2.4C209,145.4,208,144.4,208,143z M209.1,143
			c0,0.8,0.5,1.4,1.3,1.4c0.8,0,1.3-0.6,1.3-1.4c0-0.8-0.5-1.4-1.3-1.4C209.6,141.7,209.1,142.3,209.1,143z M216.4,140.8h1.3
			l-6.8,11.2h-1.3L216.4,140.8z M214.5,149.8c0-1.3,1.1-2.4,2.4-2.4s2.4,1,2.4,2.4c0,1.3-1.1,2.4-2.4,2.4S214.5,151.1,214.5,149.8z
			 M215.6,149.8c0,0.8,0.5,1.4,1.3,1.4s1.3-0.6,1.3-1.4c0-0.8-0.5-1.4-1.3-1.4S215.6,149,215.6,149.8z"/>
	</g>
	<g>
		<path d="M185.5,320.1c0.4,1.1,1.1,1.8,2.6,1.8c1.6,0,2.4-0.9,2.4-2.1c0-1.2-0.9-2-2.6-2h-0.5v-1.2h0.3c1.5,0,2.7-0.5,2.7-1.9
			c0-1.3-1-1.9-2.2-1.9c-1.2,0-2.1,0.7-2.5,1.7l-1.3-0.5c0.6-1.6,2.1-2.4,3.7-2.4c2,0,3.6,1.2,3.6,3c0,1.2-0.7,2.3-2.1,2.6
			c1.6,0.3,2.3,1.4,2.3,2.7c0,2.2-1.8,3.2-3.9,3.2c-1.8,0-3.3-0.8-3.9-2.6L185.5,320.1z"/>
		<path d="M195.1,321c0.6,0,1.1,0.5,1.1,1.1c0,0.6-0.5,1.1-1.1,1.1s-1.1-0.5-1.1-1.1C194,321.5,194.5,321,195.1,321z"/>
		<path d="M198.3,317.7c0-3,1.2-6.1,4.4-6.1c1.6,0,2.7,0.7,3.3,1.8l-1.4,0.4c-0.5-0.7-1.1-1.1-2-1.1c-2.1,0-3,2.2-3,4.5l0,0
			c0.5-0.8,1.4-1.6,3-1.6c2.1,0,3.6,1.6,3.6,3.6c0,2.2-1.6,3.8-3.9,3.8c-2.4,0-4.2-1.8-4.2-5.2V317.7z M202.4,322
			c1.4,0,2.5-1,2.5-2.6s-1-2.6-2.5-2.6c-1.5,0-2.5,1-2.5,2.5C199.9,320.9,201,322,202.4,322z"/>
		<path d="M208,314c0-1.3,1.1-2.4,2.4-2.4c1.3,0,2.4,1,2.4,2.4c0,1.3-1.1,2.4-2.4,2.4C209,316.4,208,315.4,208,314z M209.1,314
			c0,0.8,0.5,1.4,1.3,1.4c0.8,0,1.3-0.6,1.3-1.4c0-0.8-0.5-1.4-1.3-1.4C209.6,312.7,209.1,313.3,209.1,314z M216.4,311.8h1.3
			l-6.8,11.2h-1.3L216.4,311.8z M214.5,320.8c0-1.3,1.1-2.4,2.4-2.4s2.4,1,2.4,2.4s-1.1,2.4-2.4,2.4S214.5,322.1,214.5,320.8z
			 M215.6,320.8c0,0.8,0.5,1.4,1.3,1.4s1.3-0.6,1.3-1.4s-0.5-1.4-1.3-1.4S215.6,320,215.6,320.8z"/>
	</g>
	<g>
		<path d="M192.5,427h-6v-1.2h7.3v1.2l-4.5,10h-1.6L192.5,427z"/>
		<path d="M195.6,435c0.6,0,1.1,0.5,1.1,1.1c0,0.6-0.5,1.1-1.1,1.1s-1.1-0.5-1.1-1.1C194.5,435.5,195,435,195.6,435z"/>
		<path d="M198.9,437v-1.3c0.8-0.7,3.2-2.7,4-3.5c0.9-0.8,1.7-1.8,1.7-3.1c0-1.4-0.9-2.2-2.2-2.2c-1.4,0-2.1,1-2.2,2.4l-1.4-0.1
			c0.1-2.2,1.5-3.5,3.6-3.5c2.2,0,3.7,1.3,3.7,3.5c0,1.6-0.8,2.7-3.3,4.8l-2,1.7h5.5v1.2H198.9z"/>
		<path d="M208,428c0-1.3,1.1-2.4,2.4-2.4c1.3,0,2.4,1,2.4,2.4c0,1.3-1.1,2.4-2.4,2.4C209,430.4,208,429.4,208,428z M209.1,428
			c0,0.8,0.5,1.4,1.3,1.4c0.8,0,1.3-0.6,1.3-1.4c0-0.8-0.5-1.4-1.3-1.4C209.6,426.7,209.1,427.3,209.1,428z M216.4,425.8h1.3
			l-6.8,11.2h-1.3L216.4,425.8z M214.5,434.8c0-1.3,1.1-2.4,2.4-2.4s2.4,1,2.4,2.4s-1.1,2.4-2.4,2.4S214.5,436.1,214.5,434.8z
			 M215.6,434.8c0,0.8,0.5,1.4,1.3,1.4s1.3-0.6,1.3-1.4s-0.5-1.4-1.3-1.4S215.6,434,215.6,434.8z"/>
	</g>
	<g>
		<path d="M184.3,374.3l0.6-5.5h6.4v1.2H186l-0.3,3.2c0.6-0.6,1.5-0.9,2.4-0.9c2.1,0,3.7,1.6,3.7,3.8c0,2.4-1.6,4.1-4,4.1
			c-1.8,0-3.4-0.9-3.8-2.7l1.4-0.2c0.3,0.9,1,1.7,2.4,1.7c1.6,0,2.6-1.2,2.6-2.8c0-1.6-1-2.7-2.6-2.7c-0.8,0-1.7,0.4-2.1,1
			L184.3,374.3z"/>
		<path d="M194.8,378c0.6,0,1.1,0.5,1.1,1.1c0,0.6-0.5,1.1-1.1,1.1s-1.1-0.5-1.1-1.1C193.7,378.5,194.2,378,194.8,378z"/>
		<path d="M203.3,380v-2.9h-5.6v-1.4l5.1-6.9h2v7.2h1.8v1.2h-1.8v2.9H203.3z M203.3,375.9v-6l-4.3,6H203.3z"/>
		<path d="M208,371c0-1.3,1.1-2.4,2.4-2.4c1.3,0,2.4,1,2.4,2.4c0,1.3-1.1,2.4-2.4,2.4C209,373.4,208,372.4,208,371z M209.1,371
			c0,0.8,0.5,1.4,1.3,1.4c0.8,0,1.3-0.6,1.3-1.4c0-0.8-0.5-1.4-1.3-1.4C209.6,369.7,209.1,370.3,209.1,371z M216.4,368.8h1.3
			l-6.8,11.2h-1.3L216.4,368.8z M214.5,377.8c0-1.3,1.1-2.4,2.4-2.4s2.4,1,2.4,2.4s-1.1,2.4-2.4,2.4S214.5,379.1,214.5,377.8z
			 M215.6,377.8c0,0.8,0.5,1.4,1.3,1.4s1.3-0.6,1.3-1.4s-0.5-1.4-1.3-1.4S215.6,377,215.6,377.8z"/>
	</g>
	<g>
		<path d="M101,26.8c1.8,0,3.1,1.1,3.1,2.8c0,1.1-0.8,2.1-1.8,2.5c1.1,0.2,2.4,1.1,2.4,2.7c0,2.2-1.8,3.2-3.8,3.2h-4.3V26.8H101z
			 M102.7,29.8c0-1-0.6-1.8-2.2-1.8H98v3.7h2.5C102.1,31.7,102.7,30.8,102.7,29.8L102.7,29.8z M101,32.8H98v4h2.9
			c1.3,0,2.4-0.6,2.4-2C103.4,33.4,102.3,32.8,101,32.8z"/>
		<path d="M106.8,26.8h1.3v9.4c0,0.5,0.2,0.8,0.8,0.8c0.3,0,0.6,0,0.8,0l0.1,1.1c0,0-0.8,0.1-1.3,0.1c-0.9,0-1.7-0.4-1.7-1.6V26.8z"
			/>
		<path d="M113.4,38.2c-1.6,0-2.8-0.9-2.8-2.4c0-1.2,0.8-2.1,2.1-2.3l2.8-0.4v-0.5c0-1.2-0.8-1.6-1.8-1.6c-0.9,0-1.7,0.3-2.3,0.6
			l-0.5-1c0.9-0.5,2-0.7,2.9-0.7c1.9,0,3,0.9,3,2.5v3.7c0,0.5,0.2,0.9,0.7,1.1l-0.7,0.9c-0.5-0.1-0.9-0.5-1.1-1
			C115.3,37.7,114.5,38.2,113.4,38.2z M113.5,34.4c-0.9,0.1-1.5,0.4-1.5,1.2c0,0.9,0.8,1.4,1.6,1.4c1,0,2-0.6,2-1.6v-1.4L113.5,34.4
			z"/>
		<path d="M120.3,34c0,1.6,0.8,3,2.3,3c1,0,1.7-0.6,2.1-1.3l1.1,0.6c-0.5,1.1-1.7,1.9-3.2,1.9c-2.2,0-3.7-1.7-3.7-4.1
			c0-2.4,1.5-4.2,3.7-4.2c1.4,0,2.6,0.7,3.2,1.9l-1.1,0.6c-0.4-0.8-1.1-1.3-2.1-1.3C121.1,31,120.3,32.4,120.3,34L120.3,34z"/>
		<path d="M129.1,33.9l3.8-3.9h1.6l-3,3.2l3.2,4.8h-1.6l-2.5-3.9l-1.4,1.5V38h-1.3V26.8h1.3V33.9z"/>
	</g>
	<g>
		<path d="M83.9,83.7c2.1,0,3.5,1.2,4.2,2.9L86.7,87c-0.3-1-1.3-2.1-2.9-2.1c-2.3,0-3.4,2.1-3.4,4.4v0.2c0,2.3,1.1,4.4,3.4,4.4
			c1.6,0,2.5-1.1,2.9-2.1l1.3,0.4c-0.7,1.7-2.1,2.9-4.2,2.9c-3,0-4.9-2.5-4.9-5.7S80.8,83.7,83.9,83.7z"/>
		<path d="M90.2,83.8h1.3v4.1c0.5-0.7,1.4-1.1,2.3-1.1c1.8,0,2.7,1.3,2.7,2.7V95h-1.3v-5c0-1.4-0.7-1.9-1.6-1.9c-1,0-2,0.7-2,2.2V95
			h-1.3V83.8z"/>
		<path d="M99.7,83.8c0.5,0,1,0.4,1,1c0,0.5-0.4,1-1,1c-0.5,0-1-0.4-1-1C98.7,84.2,99.1,83.8,99.7,83.8z M100.3,95H99v-8h1.3V95z"/>
		<path d="M102.9,87h1.3v0.9c0.5-0.7,1.4-1.1,2.3-1.1c1.8,0,2.7,1.3,2.7,2.7V95h-1.3v-5c0-1.4-0.7-1.9-1.6-1.9c-1,0-2,0.7-2,2.2V95
			h-1.3V87z"/>
		<path d="M112.6,91.4c0.1,1.5,1,2.6,2.5,2.6c0.9,0,1.5-0.3,2.1-0.8l0.7,0.9c-0.7,0.6-1.7,1-2.8,1c-2.3,0-3.8-1.7-3.8-4.1
			c0-2.4,1.4-4.2,3.6-4.2c2.1,0,3.4,1.7,3.4,4.1v0.4H112.6z M112.6,90.4h4.2c0-1.2-0.7-2.4-2-2.4C113.5,88,112.6,89.1,112.6,90.4z"
			/>
		<path d="M119.5,94l0.8-0.9c0.5,0.4,1.3,1,2.4,1c0.9,0,1.6-0.4,1.6-1.2c0-0.9-0.9-1.1-2-1.3c-1.1-0.3-2.5-0.7-2.5-2.3
			c0-1.3,1.2-2.3,2.9-2.3c1.1,0,2.2,0.4,2.8,1l-0.8,0.9c-0.5-0.4-1.2-0.8-2-0.8c-1.1,0-1.6,0.5-1.6,1.2c0,0.6,0.4,0.9,1.2,1.1
			c0.4,0.1,0.9,0.3,1.3,0.4c1.1,0.3,2,0.9,2,2.2c0,1.6-1.5,2.4-3,2.4C121.6,95.2,120.4,94.8,119.5,94z"/>
		<path d="M128.6,91.4c0.1,1.5,1,2.6,2.5,2.6c0.9,0,1.5-0.3,2.1-0.8l0.7,0.9c-0.7,0.6-1.7,1-2.8,1c-2.3,0-3.8-1.7-3.8-4.1
			c0-2.4,1.4-4.2,3.6-4.2c2.1,0,3.4,1.7,3.4,4.1v0.4H128.6z M128.6,90.4h4.2c0-1.2-0.7-2.4-2-2.4C129.5,88,128.7,89.1,128.6,90.4z"
			/>
	</g>
	<g>
		<path d="M93.3,140.8h1.4V152h-1.4V140.8z"/>
		<path d="M97.4,144h1.3v0.9c0.5-0.7,1.4-1.1,2.3-1.1c1.8,0,2.7,1.3,2.7,2.7v5.4h-1.3v-5c0-1.4-0.7-1.9-1.6-1.9c-1,0-2,0.7-2,2.2
			v4.7h-1.3V144z"/>
		<path d="M111.5,151.1c-0.5,0.7-1.3,1.1-2.3,1.1c-2.1,0-3.4-1.7-3.4-4.1c0-2.4,1.3-4.2,3.4-4.2c1,0,1.9,0.4,2.3,1.1v-4.1h1.3V152
			h-1.3V151.1z M107.1,148c0,1.7,0.8,2.9,2.3,2.9c1.4,0,2.1-1,2.1-2.3v-1.3c0-1.3-0.7-2.3-2.1-2.3C107.9,145,107.1,146.3,107.1,148
			L107.1,148z"/>
		<path d="M116.1,140.8c0.5,0,1,0.4,1,1c0,0.5-0.4,1-1,1c-0.5,0-1-0.4-1-1C115.1,141.2,115.5,140.8,116.1,140.8z M116.7,152h-1.3v-8
			h1.3V152z"/>
		<path d="M121.4,152.2c-1.6,0-2.8-0.9-2.8-2.4c0-1.2,0.8-2.1,2.1-2.3l2.8-0.4v-0.5c0-1.2-0.8-1.6-1.8-1.6c-0.9,0-1.7,0.3-2.3,0.6
			l-0.5-1c0.9-0.5,2-0.7,2.9-0.7c1.9,0,3,0.9,3,2.5v3.7c0,0.5,0.2,0.9,0.7,1.1l-0.7,0.9c-0.5-0.1-0.9-0.5-1.1-1
			C123.3,151.7,122.5,152.2,121.4,152.2z M121.5,148.4c-0.9,0.1-1.5,0.4-1.5,1.2c0,0.9,0.8,1.4,1.6,1.4c1,0,2-0.6,2-1.6v-1.4
			L121.5,148.4z"/>
		<path d="M127.5,144h1.3v0.9c0.5-0.7,1.4-1.1,2.3-1.1c1.8,0,2.7,1.3,2.7,2.7v5.4h-1.3v-5c0-1.4-0.7-1.9-1.6-1.9c-1,0-2,0.7-2,2.2
			v4.7h-1.3V144z"/>
	</g>
	<g>
		<path d="M100.3,425.7c3,0,4.9,2.5,4.9,5.8s-1.9,5.7-4.9,5.7s-4.9-2.5-4.9-5.7S97.3,425.7,100.3,425.7z M103.7,431.3
			c0-2.3-1-4.4-3.4-4.4s-3.4,2.1-3.4,4.4v0.2c0,2.3,1,4.4,3.4,4.4s3.4-2.1,3.4-4.4V431.3z"/>
		<path d="M109.5,435c0,0.5,0.1,1,1,1c0.2,0,0.8,0,1-0.1l0.1,1.2c0,0-0.8,0.1-1.4,0.1c-1.3,0-2-0.5-2-1.9v-5.1h-1.5V429h1.5v-2.6
			l1.3-0.5v3.1h2.2v1.2h-2.2V435z"/>
		<path d="M113.5,425.8h1.3v4.1c0.5-0.7,1.4-1.1,2.3-1.1c1.8,0,2.7,1.3,2.7,2.7v5.4h-1.3v-5c0-1.4-0.7-1.9-1.6-1.9c-1,0-2,0.7-2,2.2
			v4.7h-1.3V425.8z"/>
		<path d="M123.2,433.4c0.1,1.5,1,2.6,2.5,2.6c0.9,0,1.5-0.3,2.1-0.8l0.7,0.9c-0.7,0.6-1.7,1-2.8,1c-2.3,0-3.8-1.7-3.8-4.1
			c0-2.4,1.4-4.2,3.6-4.2c2.1,0,3.4,1.7,3.4,4.1v0.4H123.2z M123.2,432.4h4.2c0-1.2-0.7-2.4-2-2.4
			C124.1,430,123.3,431.1,123.2,432.4z"/>
		<path d="M134.9,430.2h-0.2c-1.3,0-2.6,0.5-2.6,2.7v4.1h-1.3v-8h1.3v1.3c0.4-0.9,1.4-1.4,2.4-1.4h0.4V430.2z"/>
	</g>
	<g>
		<path d="M76.8,490v-7.2h1.3v7.3c0,2.4-1.8,4-4.1,4c-2.3,0-4.1-1.6-4.1-4v-7.3h1.4v7.2c0,2.1,1.3,3,2.8,3
			C75.5,493,76.8,492.1,76.8,490z"/>
		<path d="M80.9,486h1.3v0.9c0.5-0.7,1.4-1.1,2.3-1.1c1.8,0,2.7,1.3,2.7,2.7v5.4h-1.3v-5c0-1.4-0.7-1.9-1.6-1.9c-1,0-2,0.7-2,2.2
			v4.7h-1.3V486z"/>
		<path d="M91,489.9l3.8-3.9h1.6l-3,3.2l3.2,4.8h-1.6l-2.5-3.9l-1.4,1.5v2.5h-1.3v-11.2H91V489.9z"/>
		<path d="M98.2,486h1.3v0.9c0.5-0.7,1.4-1.1,2.3-1.1c1.8,0,2.7,1.3,2.7,2.7v5.4h-1.3v-5c0-1.4-0.7-1.9-1.6-1.9c-1,0-2,0.7-2,2.2
			v4.7h-1.3V486z"/>
		<path d="M113.9,490c0,2.4-1.5,4.1-3.7,4.1s-3.7-1.7-3.7-4.1c0-2.4,1.5-4.2,3.7-4.2S113.9,487.6,113.9,490z M112.5,490.1
			L112.5,490.1c0-1.7-0.8-3.1-2.3-3.1s-2.3,1.4-2.3,3v0.1c0,1.6,0.8,2.9,2.3,2.9S112.5,491.6,112.5,490.1z"/>
		<path d="M122.8,492.4l1.4-6.4h1.4l-2,8H122l-1.6-6.4l-1.6,6.4h-1.6l-1.9-8h1.4l1.4,6.4l1.7-6.4h1.5L122.8,492.4z"/>
		<path d="M127.5,486h1.3v0.9c0.5-0.7,1.4-1.1,2.3-1.1c1.8,0,2.7,1.3,2.7,2.7v5.4h-1.3v-5c0-1.4-0.7-1.9-1.6-1.9c-1,0-2,0.7-2,2.2
			v4.7h-1.3V486z"/>
	</g>
	<g>
		<path d="M173.8,92.5c0.7,0.9,1.9,1.5,3.2,1.5c1.4,0,2.5-0.7,2.5-2c0-0.8-0.4-1.3-1.1-1.6c-1.1-0.5-2.9-0.6-4.1-1.3
			c-0.7-0.4-1.3-1.1-1.3-2.3c0-1.7,1.4-3.1,3.8-3.1c1.4,0,2.8,0.6,3.7,1.5l-1,0.8c-0.6-0.6-1.5-1.2-2.7-1.2c-1.4,0-2.4,0.7-2.4,1.9
			c0,1.8,2.6,1.6,4.6,2.5c1,0.4,1.9,1.2,1.9,2.7c0,2.2-2,3.3-4.1,3.3c-1.9,0-3.2-0.8-4.1-1.7L173.8,92.5z"/>
		<path d="M185.2,95.2c-1.6,0-2.8-0.9-2.8-2.4c0-1.2,0.8-2.1,2.1-2.3l2.8-0.4v-0.5c0-1.2-0.8-1.6-1.8-1.6c-0.9,0-1.7,0.3-2.3,0.6
			l-0.5-1c0.9-0.5,2-0.7,2.9-0.7c1.9,0,3,0.9,3,2.5v3.7c0,0.5,0.2,0.9,0.7,1.1l-0.7,0.9c-0.5-0.1-0.9-0.5-1.1-1
			C187.1,94.7,186.3,95.2,185.2,95.2z M185.3,91.4c-0.9,0.1-1.5,0.4-1.5,1.2c0,0.9,0.8,1.4,1.6,1.4c1,0,2-0.6,2-1.6v-1.4L185.3,91.4
			z"/>
		<path d="M197.3,95h-1.3v-5c0-1.4-0.7-1.9-1.6-1.9c-0.9,0-1.8,0.7-1.8,2.2V95h-1.3v-8h1.3v0.9c0.5-0.7,1.2-1.1,2.1-1.1
			c0.7,0,1.7,0.4,2.2,1.3c0.6-1,1.5-1.3,2.4-1.3c1.7,0,2.7,1.3,2.7,2.7V95h-1.3v-5c0-1.4-0.8-1.9-1.6-1.9c-0.9,0-1.8,0.7-1.8,2.2V95
			z"/>
		<path d="M205.8,87v0.9c0.5-0.7,1.3-1.1,2.3-1.1c2.1,0,3.4,1.7,3.4,4.2c0,2.4-1.3,4.1-3.4,4.1c-1,0-1.9-0.4-2.3-1.1v3.3h-1.3V87
			H205.8z M210.1,91c0-1.7-0.8-2.9-2.3-2.9c-1.4,0-2.1,1-2.1,2.3v1.3c0,1.3,0.7,2.3,2.1,2.3C209.3,94,210.1,92.7,210.1,91L210.1,91z
			"/>
		<path d="M213.5,83.8h1.3v9.4c0,0.5,0.2,0.8,0.8,0.8c0.3,0,0.6,0,0.8,0l0.1,1.1c0,0-0.8,0.1-1.3,0.1c-0.9,0-1.7-0.4-1.7-1.6V83.8z"
			/>
		<path d="M218.9,91.4c0.1,1.5,1,2.6,2.5,2.6c0.9,0,1.5-0.3,2.1-0.8l0.7,0.9c-0.7,0.6-1.7,1-2.8,1c-2.3,0-3.8-1.7-3.8-4.1
			c0-2.4,1.4-4.2,3.6-4.2c2.1,0,3.4,1.7,3.4,4.1v0.4H218.9z M218.9,90.4h4.2c0-1.2-0.7-2.4-2-2.4C219.8,88,218.9,89.1,218.9,90.4z"
			/>
		<path d="M230,94l0.8-0.9c0.5,0.4,1.3,1,2.4,1c0.9,0,1.6-0.4,1.6-1.2c0-0.9-0.9-1.1-2-1.3c-1.1-0.3-2.5-0.7-2.5-2.3
			c0-1.3,1.2-2.3,2.9-2.3c1.1,0,2.2,0.4,2.8,1l-0.8,0.9c-0.5-0.4-1.2-0.8-2-0.8c-1.1,0-1.6,0.5-1.6,1.2c0,0.6,0.4,0.9,1.2,1.1
			c0.4,0.1,0.9,0.3,1.3,0.4c1.1,0.3,2,0.9,2,2.2c0,1.6-1.5,2.4-3,2.4C232.1,95.2,230.9,94.8,230,94z"/>
		<path d="M238.9,83.8c0.5,0,1,0.4,1,1c0,0.5-0.4,1-1,1c-0.5,0-1-0.4-1-1C237.9,84.2,238.4,83.8,238.9,83.8z M239.5,95h-1.3v-8h1.3
			V95z"/>
		<path d="M241.5,93.8l4.4-5.7h-4.1V87h5.6v1.2l-4.3,5.6h4.5V95h-6V93.8z"/>
		<path d="M250.3,91.4c0.1,1.5,1,2.6,2.5,2.6c0.9,0,1.5-0.3,2.1-0.8l0.7,0.9c-0.7,0.6-1.7,1-2.8,1c-2.3,0-3.8-1.7-3.8-4.1
			c0-2.4,1.4-4.2,3.6-4.2c2.1,0,3.4,1.7,3.4,4.1v0.4H250.3z M250.4,90.4h4.2c0-1.2-0.7-2.4-2-2.4C251.2,88,250.4,89.1,250.4,90.4z"
			/>
		<path d="M263.9,93c0,0.5,0.1,1,1,1c0.2,0,0.8,0,1-0.1l0.1,1.2c0,0-0.8,0.1-1.4,0.1c-1.3,0-2-0.5-2-1.9v-5.1h-1.5V87h1.5v-2.6
			l1.3-0.5V87h2.2v1.2h-2.2V93z"/>
		<path d="M274.8,91c0,2.4-1.5,4.1-3.7,4.1s-3.7-1.7-3.7-4.1c0-2.4,1.5-4.2,3.7-4.2S274.8,88.6,274.8,91z M273.4,91.1L273.4,91.1
			c0-1.7-0.8-3.1-2.3-3.1s-2.3,1.4-2.3,3v0.1c0,1.6,0.8,2.9,2.3,2.9S273.4,92.6,273.4,91.1z"/>
		<path d="M283.8,91c0,2.4-1.5,4.1-3.7,4.1s-3.7-1.7-3.7-4.1c0-2.4,1.5-4.2,3.7-4.2S283.8,88.6,283.8,91z M282.4,91.1L282.4,91.1
			c0-1.7-0.8-3.1-2.3-3.1s-2.3,1.4-2.3,3v0.1c0,1.6,0.8,2.9,2.3,2.9S282.4,92.6,282.4,91.1z"/>
		<path d="M289.3,94l0.8-0.9c0.5,0.4,1.3,1,2.4,1c0.9,0,1.6-0.4,1.6-1.2c0-0.9-0.9-1.1-2-1.3c-1.1-0.3-2.5-0.7-2.5-2.3
			c0-1.3,1.2-2.3,2.9-2.3c1.1,0,2.2,0.4,2.8,1l-0.8,0.9c-0.5-0.4-1.2-0.8-2-0.8c-1.1,0-1.6,0.5-1.6,1.2c0,0.6,0.4,0.9,1.2,1.1
			c0.4,0.1,0.9,0.3,1.3,0.4c1.1,0.3,2,0.9,2,2.2c0,1.6-1.5,2.4-3,2.4C291.4,95.2,290.2,94.8,289.3,94z"/>
		<path d="M303.5,95h-1.3v-5c0-1.4-0.7-1.9-1.6-1.9c-0.9,0-1.8,0.7-1.8,2.2V95h-1.3v-8h1.3v0.9c0.5-0.7,1.2-1.1,2.1-1.1
			c0.7,0,1.7,0.4,2.2,1.3c0.6-1,1.5-1.3,2.4-1.3c1.7,0,2.7,1.3,2.7,2.7V95h-1.3v-5c0-1.4-0.8-1.9-1.6-1.9c-0.9,0-1.8,0.7-1.8,2.2V95
			z"/>
		<path d="M312.9,95.2c-1.6,0-2.8-0.9-2.8-2.4c0-1.2,0.8-2.1,2.1-2.3l2.8-0.4v-0.5c0-1.2-0.8-1.6-1.8-1.6c-0.9,0-1.7,0.3-2.3,0.6
			l-0.5-1c0.9-0.5,2-0.7,2.9-0.7c1.9,0,3,0.9,3,2.5v3.7c0,0.5,0.2,0.9,0.7,1.1l-0.7,0.9c-0.5-0.1-0.9-0.5-1.1-1
			C314.8,94.7,314,95.2,312.9,95.2z M312.9,91.4c-0.9,0.1-1.5,0.4-1.5,1.2c0,0.9,0.8,1.4,1.6,1.4c1,0,2-0.6,2-1.6v-1.4L312.9,91.4z"
			/>
		<path d="M318.9,83.8h1.3v9.4c0,0.5,0.2,0.8,0.8,0.8c0.3,0,0.6,0,0.8,0l0.1,1.1c0,0-0.8,0.1-1.3,0.1c-0.9,0-1.7-0.4-1.7-1.6V83.8z"
			/>
		<path d="M323.3,83.8h1.3v9.4c0,0.5,0.2,0.8,0.8,0.8c0.3,0,0.6,0,0.8,0l0.1,1.1c0,0-0.8,0.1-1.3,0.1c-0.9,0-1.7-0.4-1.7-1.6V83.8z"
			/>
	</g>
	<g>
		<path d="M173.8,491.5c0.7,0.9,1.9,1.5,3.2,1.5c1.4,0,2.5-0.7,2.5-2c0-0.8-0.4-1.3-1.1-1.6c-1.1-0.5-2.9-0.6-4.1-1.3
			c-0.7-0.4-1.3-1.1-1.3-2.3c0-1.7,1.4-3.1,3.8-3.1c1.4,0,2.8,0.6,3.7,1.5l-1,0.8c-0.6-0.6-1.5-1.2-2.7-1.2c-1.4,0-2.4,0.7-2.4,1.9
			c0,1.8,2.6,1.6,4.6,2.5c1,0.4,1.9,1.2,1.9,2.7c0,2.2-2,3.3-4.1,3.3c-1.9,0-3.2-0.8-4.1-1.7L173.8,491.5z"/>
		<path d="M185.2,494.2c-1.6,0-2.8-0.9-2.8-2.4c0-1.2,0.8-2.1,2.1-2.3l2.8-0.4v-0.5c0-1.2-0.8-1.6-1.8-1.6c-0.9,0-1.7,0.3-2.3,0.6
			l-0.5-1c0.9-0.5,2-0.7,2.9-0.7c1.9,0,3,0.9,3,2.5v3.7c0,0.5,0.2,0.9,0.7,1.1l-0.7,0.9c-0.5-0.1-0.9-0.5-1.1-1
			C187.1,493.7,186.3,494.2,185.2,494.2z M185.3,490.4c-0.9,0.1-1.5,0.4-1.5,1.2c0,0.9,0.8,1.4,1.6,1.4c1,0,2-0.6,2-1.6v-1.4
			L185.3,490.4z"/>
		<path d="M197.3,494h-1.3v-5c0-1.4-0.7-1.9-1.6-1.9c-0.9,0-1.8,0.7-1.8,2.2v4.7h-1.3v-8h1.3v0.9c0.5-0.7,1.2-1.1,2.1-1.1
			c0.7,0,1.7,0.4,2.2,1.3c0.6-1,1.5-1.3,2.4-1.3c1.7,0,2.7,1.3,2.7,2.7v5.5h-1.3v-5c0-1.4-0.8-1.9-1.6-1.9c-0.9,0-1.8,0.7-1.8,2.2
			V494z"/>
		<path d="M205.8,486v0.9c0.5-0.7,1.3-1.1,2.3-1.1c2.1,0,3.4,1.7,3.4,4.2c0,2.4-1.3,4.1-3.4,4.1c-1,0-1.9-0.4-2.3-1.1v3.3h-1.3V486
			H205.8z M210.1,490c0-1.7-0.8-2.9-2.3-2.9c-1.4,0-2.1,1-2.1,2.3v1.3c0,1.3,0.7,2.3,2.1,2.3C209.3,493,210.1,491.7,210.1,490
			L210.1,490z"/>
		<path d="M213.5,482.8h1.3v9.4c0,0.5,0.2,0.8,0.8,0.8c0.3,0,0.6,0,0.8,0l0.1,1.1c0,0-0.8,0.1-1.3,0.1c-0.9,0-1.7-0.4-1.7-1.6V482.8
			z"/>
		<path d="M218.9,490.4c0.1,1.5,1,2.6,2.5,2.6c0.9,0,1.5-0.3,2.1-0.8l0.7,0.9c-0.7,0.6-1.7,1-2.8,1c-2.3,0-3.8-1.7-3.8-4.1
			c0-2.4,1.4-4.2,3.6-4.2c2.1,0,3.4,1.7,3.4,4.1v0.4H218.9z M218.9,489.4h4.2c0-1.2-0.7-2.4-2-2.4
			C219.8,487,218.9,488.1,218.9,489.4z"/>
		<path d="M230,493l0.8-0.9c0.5,0.4,1.3,1,2.4,1c0.9,0,1.6-0.4,1.6-1.2c0-0.9-0.9-1.1-2-1.3c-1.1-0.3-2.5-0.7-2.5-2.3
			c0-1.3,1.2-2.3,2.9-2.3c1.1,0,2.2,0.4,2.8,1l-0.8,0.9c-0.5-0.4-1.2-0.8-2-0.8c-1.1,0-1.6,0.5-1.6,1.2c0,0.6,0.4,0.9,1.2,1.1
			c0.4,0.1,0.9,0.3,1.3,0.4c1.1,0.3,2,0.9,2,2.2c0,1.6-1.5,2.4-3,2.4C232.1,494.2,230.9,493.8,230,493z"/>
		<path d="M238.9,482.8c0.5,0,1,0.4,1,1c0,0.5-0.4,1-1,1c-0.5,0-1-0.4-1-1C237.9,483.2,238.4,482.8,238.9,482.8z M239.5,494h-1.3v-8
			h1.3V494z"/>
		<path d="M241.5,492.8l4.4-5.7h-4.1V486h5.6v1.2l-4.3,5.6h4.5v1.1h-6V492.8z"/>
		<path d="M250.3,490.4c0.1,1.5,1,2.6,2.5,2.6c0.9,0,1.5-0.3,2.1-0.8l0.7,0.9c-0.7,0.6-1.7,1-2.8,1c-2.3,0-3.8-1.7-3.8-4.1
			c0-2.4,1.4-4.2,3.6-4.2c2.1,0,3.4,1.7,3.4,4.1v0.4H250.3z M250.4,489.4h4.2c0-1.2-0.7-2.4-2-2.4
			C251.2,487,250.4,488.1,250.4,489.4z"/>
		<path d="M263.9,492c0,0.5,0.1,1,1,1c0.2,0,0.8,0,1-0.1l0.1,1.2c0,0-0.8,0.1-1.4,0.1c-1.3,0-2-0.5-2-1.9v-5.1h-1.5V486h1.5v-2.6
			l1.3-0.5v3.1h2.2v1.2h-2.2V492z"/>
		<path d="M274.8,490c0,2.4-1.5,4.1-3.7,4.1s-3.7-1.7-3.7-4.1c0-2.4,1.5-4.2,3.7-4.2S274.8,487.6,274.8,490z M273.4,490.1
			L273.4,490.1c0-1.7-0.8-3.1-2.3-3.1s-2.3,1.4-2.3,3v0.1c0,1.6,0.8,2.9,2.3,2.9S273.4,491.6,273.4,490.1z"/>
		<path d="M283.8,490c0,2.4-1.5,4.1-3.7,4.1s-3.7-1.7-3.7-4.1c0-2.4,1.5-4.2,3.7-4.2S283.8,487.6,283.8,490z M282.4,490.1
			L282.4,490.1c0-1.7-0.8-3.1-2.3-3.1s-2.3,1.4-2.3,3v0.1c0,1.6,0.8,2.9,2.3,2.9S282.4,491.6,282.4,490.1z"/>
		<path d="M289.3,493l0.8-0.9c0.5,0.4,1.3,1,2.4,1c0.9,0,1.6-0.4,1.6-1.2c0-0.9-0.9-1.1-2-1.3c-1.1-0.3-2.5-0.7-2.5-2.3
			c0-1.3,1.2-2.3,2.9-2.3c1.1,0,2.2,0.4,2.8,1l-0.8,0.9c-0.5-0.4-1.2-0.8-2-0.8c-1.1,0-1.6,0.5-1.6,1.2c0,0.6,0.4,0.9,1.2,1.1
			c0.4,0.1,0.9,0.3,1.3,0.4c1.1,0.3,2,0.9,2,2.2c0,1.6-1.5,2.4-3,2.4C291.4,494.2,290.2,493.8,289.3,493z"/>
		<path d="M303.5,494h-1.3v-5c0-1.4-0.7-1.9-1.6-1.9c-0.9,0-1.8,0.7-1.8,2.2v4.7h-1.3v-8h1.3v0.9c0.5-0.7,1.2-1.1,2.1-1.1
			c0.7,0,1.7,0.4,2.2,1.3c0.6-1,1.5-1.3,2.4-1.3c1.7,0,2.7,1.3,2.7,2.7v5.5h-1.3v-5c0-1.4-0.8-1.9-1.6-1.9c-0.9,0-1.8,0.7-1.8,2.2
			V494z"/>
		<path d="M312.9,494.2c-1.6,0-2.8-0.9-2.8-2.4c0-1.2,0.8-2.1,2.1-2.3l2.8-0.4v-0.5c0-1.2-0.8-1.6-1.8-1.6c-0.9,0-1.7,0.3-2.3,0.6
			l-0.5-1c0.9-0.5,2-0.7,2.9-0.7c1.9,0,3,0.9,3,2.5v3.7c0,0.5,0.2,0.9,0.7,1.1l-0.7,0.9c-0.5-0.1-0.9-0.5-1.1-1
			C314.8,493.7,314,494.2,312.9,494.2z M312.9,490.4c-0.9,0.1-1.5,0.4-1.5,1.2c0,0.9,0.8,1.4,1.6,1.4c1,0,2-0.6,2-1.6v-1.4
			L312.9,490.4z"/>
		<path d="M318.9,482.8h1.3v9.4c0,0.5,0.2,0.8,0.8,0.8c0.3,0,0.6,0,0.8,0l0.1,1.1c0,0-0.8,0.1-1.3,0.1c-0.9,0-1.7-0.4-1.7-1.6V482.8
			z"/>
		<path d="M323.3,482.8h1.3v9.4c0,0.5,0.2,0.8,0.8,0.8c0.3,0,0.6,0,0.8,0l0.1,1.1c0,0-0.8,0.1-1.3,0.1c-0.9,0-1.7-0.4-1.7-1.6V482.8
			z"/>
	</g>
	<g>
		<path d="M58.1,368.7c3,0,4.9,2.5,4.9,5.8c0,3.2-1.9,5.7-4.9,5.7s-4.9-2.5-4.9-5.7C53.2,371.2,55,368.7,58.1,368.7z M61.5,374.3
			c0-2.3-1-4.5-3.4-4.5s-3.4,2.1-3.4,4.5v0.2c0,2.3,1,4.4,3.4,4.4s3.4-2.1,3.4-4.4V374.3z"/>
		<path d="M67.3,378c0,0.5,0.1,1,1,1c0.2,0,0.8,0,1-0.1l0.1,1.2c0,0-0.8,0.1-1.4,0.1c-1.3,0-2-0.5-2-1.9v-5.1h-1.5V372h1.5v-2.6
			l1.3-0.5v3.1h2.2v1.2h-2.2V378z"/>
		<path d="M71.3,368.8h1.3v4.1c0.5-0.7,1.4-1.1,2.3-1.1c1.8,0,2.7,1.3,2.7,2.7v5.4h-1.3v-5c0-1.4-0.7-1.9-1.6-1.9c-1,0-2,0.7-2,2.2
			v4.7h-1.3V368.8z"/>
		<path d="M81,376.4c0.1,1.5,1,2.6,2.5,2.6c0.9,0,1.5-0.3,2.1-0.8l0.7,0.9c-0.7,0.6-1.7,1-2.8,1c-2.3,0-3.8-1.7-3.8-4.1
			c0-2.4,1.4-4.2,3.6-4.2c2.1,0,3.4,1.7,3.4,4.1v0.4H81z M81,375.4h4.2c0-1.2-0.7-2.4-2-2.4C81.9,373,81,374.1,81,375.4z"/>
		<path d="M92.7,373.2h-0.2c-1.3,0-2.6,0.5-2.6,2.7v4.1h-1.3v-8h1.3v1.3c0.4-0.9,1.4-1.4,2.4-1.4h0.4V373.2z"/>
		<path d="M103.8,377.5h-4.5l-0.7,2.5h-1.5l3.5-11.2h2l3.5,11.2h-1.5L103.8,377.5z M99.7,376.3h3.8l-1.9-6.3h-0.1L99.7,376.3z"/>
		<path d="M107.2,379l0.8-0.9c0.5,0.4,1.3,1,2.4,1c0.9,0,1.6-0.4,1.6-1.2c0-0.9-0.9-1.1-2-1.3c-1.1-0.3-2.5-0.7-2.5-2.3
			c0-1.3,1.2-2.3,2.9-2.3c1.1,0,2.2,0.4,2.8,1l-0.8,0.9c-0.5-0.4-1.2-0.8-2-0.8c-1.1,0-1.6,0.5-1.6,1.2c0,0.6,0.4,0.9,1.2,1.1
			c0.4,0.1,0.9,0.3,1.3,0.4c1.1,0.3,2,0.9,2,2.2c0,1.6-1.5,2.4-3,2.4C109.2,380.2,108.1,379.8,107.2,379z"/>
		<path d="M116.1,368.8c0.5,0,1,0.4,1,1c0,0.5-0.4,1-1,1c-0.5,0-1-0.4-1-1C115.1,369.2,115.5,368.8,116.1,368.8z M116.7,380h-1.3v-8
			h1.3V380z"/>
		<path d="M121.5,380.2c-1.6,0-2.8-0.9-2.8-2.4c0-1.2,0.8-2.1,2.1-2.3l2.8-0.4v-0.5c0-1.2-0.8-1.6-1.8-1.6c-0.9,0-1.7,0.3-2.3,0.6
			l-0.5-1c0.9-0.5,2-0.7,2.9-0.7c1.9,0,3,0.9,3,2.5v3.7c0,0.5,0.2,0.9,0.7,1.1l-0.7,0.9c-0.5-0.1-0.9-0.5-1.1-1
			C123.3,379.7,122.5,380.2,121.5,380.2z M121.5,376.4c-0.9,0.1-1.5,0.4-1.5,1.2c0,0.9,0.8,1.4,1.6,1.4c1,0,2-0.6,2-1.6v-1.4
			L121.5,376.4z"/>
		<path d="M127.5,372h1.3v0.9c0.5-0.7,1.4-1.1,2.3-1.1c1.8,0,2.7,1.3,2.7,2.7v5.4h-1.3v-5c0-1.4-0.7-1.9-1.6-1.9c-1,0-2,0.7-2,2.2
			v4.7h-1.3V372z"/>
	</g>
	<g>
		<rect x="433" y="9" fill="#005EA5" width="1" height="38"/>
	</g>
	<g>
		<rect x="266" y="123" fill="#005EA5" width="1" height="38"/>
	</g>
	<g>
		<rect x="334" y="180" fill="#005EA5" width="1" height="38"/>
	</g>
	<g>
		<rect x="345" y="237" fill="#005EA5" width="1" height="38"/>
	</g>
	<g>
		<rect x="241" y="294" fill="#005EA5" width="1" height="38"/>
	</g>
	<g>
		<rect x="282" y="351" fill="#005EA5" width="1" height="38"/>
	</g>
	<g>
		<rect x="322" y="408" fill="#005EA5" width="1" height="38"/>
	</g>
	<g>
		<rect x="159.5" width="1" height="513"/>
	</g>
</g>
</svg>
